<?xml version="1.0" standalone="no"?><svg xmlns="http://www.w3.org/2000/svg" viewBox="0 0 1440 320"><path fill="#0099ff" fill-opacity="1" d="M0,64L40,85.3C80,107,160,149,240,176C320,203,400,213,480,213.3C560,213,640,203,720,192C800,181,880,171,960,192C1040,213,1120,267,1200,272C1280,277,1360,235,1400,213.3L1440,192L1440,320L1400,320C1360,320,1280,320,1200,320C1120,320,1040,320,960,320C880,320,800,320,720,320C640,320,560,320,480,320C400,320,320,320,240,320C160,320,80,320,40,320L0,320Z"></path></svg>